#!OML:ASF X:\für Bonn\!DataBase\2005_08_10_Bjorn_Final\c3d\bjorn.ASF
:FULLY-SPECIFIED
:DEGREES
619
root -0.317784 1.65492 10.5811 -2440.02 1.70146 184.313
lowerback 8.04606 1.17169 0.382539
upperback 5.85265 1.15953 -2.24555
thorax 1.60247 0.425116 -2.61335
lowerneck -16.9802 -4.33902 -0.473
upperneck 8.72246 -6.34861 3.75753
head 5.52516 -2.90792 0.645837
rclavicle -1.27222e-014 3.24019e-014
rhumerus -429.998 51.6483 252.061
rradius 111.743
rwrist -29.4366
rhand 6.20174 9.30186
rfingers 7.12502
rthumb 31.5155 -18.0001
lclavicle -1.27222e-014 3.24019e-014
lhumerus -75.9341 -68.0484 118.427
lradius 110.611
lwrist 35.4171
lhand -4.61211 -12.1186
lfingers 7.12502
lthumb 21.1661 736.746
rfemur -215.065 -171.331 189.043
rtibia 91.0177
rfoot 25.2678 6.5065
rtoes 1.60556
lfemur 196.467 180.257 165.43
ltibia -1.59028e-015
lfoot 18.8802 1.65203
ltoes -16.6766
620
root -0.319746 1.65459 10.5774 -2439.99 1.6866 184.316
lowerback 8.01605 1.16908 0.405623
upperback 5.83863 1.15884 -2.27291
thorax 1.60562 0.426535 -2.6542
lowerneck -16.9079 -4.33992 -0.449584
upperneck 8.663 -6.35535 3.76864
head 5.49454 -2.91234 0.647105
rclavicle -2.06736e-014 1.35174e-014
rhumerus -430.03 51.6223 252.024
rradius 111.782
rwrist -29.4845
rhand 6.21172 9.27175
rfingers 7.12502
rthumb 31.525 -18.0283
lclavicle -2.06736e-014 1.35174e-014
lhumerus -75.9138 -68.0597 118.387
lradius 110.587
lwrist 35.4155
lhand -4.56811 -12.0908
lfingers 7.12502
lthumb 21.2083 736.769
rfemur -214.771 -171.291 189.206
rtibia 89.848
rfoot 24.6775 6.56683
rtoes 1.03514
lfemur 196.442 180.302 165.398
ltibia -2.70347e-014
lfoot 18.8324 1.75396
ltoes -16.5602
621
root -0.320829 1.6551 10.5747 -2439.99 1.67367 184.318
lowerback 8.0126 1.16858 0.415764
upperback 5.83975 1.15833 -2.29116
thorax 1.60939 0.426676 -2.67875
lowerneck -16.8488 -4.33806 -0.429456
upperneck 8.58832 -6.35824 3.78694
head 5.46153 -2.91467 0.651434
rclavicle -8.74653e-015 2.48481e-014
rhumerus -430.062 51.5804 252.016
rradius 111.814
rwrist -29.4703
rhand 6.28215 9.29402
rfingers 7.12502
rthumb 31.5921 -17.9929
lclavicle -8.74653e-015 2.48481e-014
lhumerus -75.8245 -68.067 118.288
lradius 110.56
lwrist 35.4341
lhand -4.50505 -12.1191
lfingers 7.12502
lthumb 21.2689 736.734
rfemur -214.405 -171.264 189.361
rtibia 88.6511
rfoot 24.0272 6.65386
rtoes 0.371803
lfemur 196.454 180.352 165.37
ltibia 7.95139e-016
lfoot 18.785 1.89693
ltoes -16.3119
622
root -0.322045 1.65434 10.5719 -2439.97 1.67588 184.312
lowerback 7.99069 1.16805 0.431796
upperback 5.83465 1.15965 -2.29457
thorax 1.61669 0.428365 -2.69104
lowerneck -16.8004 -4.3315 -0.407154
upperneck 8.53152 -6.35012 3.77258
head 5.43438 -2.91284 0.645916
rclavicle 3.97569e-015 5.76476e-015
rhumerus -430.092 51.5539 252.016
rradius 111.861
rwrist -29.5118
rhand 6.32647 9.27988
rfingers 7.12502
rthumb 31.6344 -17.9987
lclavicle 3.97569e-015 5.76476e-015
lhumerus -75.737 -68.0526 118.213
lradius 110.522
lwrist 35.4095
lhand -4.46084 -12.1262
lfingers 7.12502
lthumb 21.3114 736.722
rfemur -214.056 -171.253 189.539
rtibia 87.4505
rfoot 23.3421 6.73167
rtoes -0.399667
lfemur 196.44 180.395 165.366
ltibia -5.00937e-014
lfoot 18.7316 2.04713
ltoes -16.1269
623
root -0.32301 1.65454 10.5702 -2439.96 1.67998 184.305
lowerback 7.97421 1.1614 0.447493
upperback 5.83141 1.15275 -2.29572
thorax 1.62246 0.425867 -2.70036
lowerneck -16.7615 -4.32692 -0.39491
upperneck 8.47532 -6.34268 3.76056
head 5.40936 -2.9113 0.642454
rclavicle 1.59028e-015 -2.70347e-014
rhumerus -430.122 51.5679 252.005
rradius 111.899
rwrist -29.5524
rhand 6.36694 9.26399
rfingers 7.12502
rthumb 31.6729 -18.007
lclavicle 1.59028e-015 -2.70347e-014
lhumerus -75.6339 -68.0337 118.11
lradius 110.486
lwrist 35.3988
lhand -4.44229 -12.1389
lfingers 7.12502
lthumb 21.3292 736.707
rfemur -213.672 -171.227 189.708
rtibia 86.2411
rfoot 22.6447 6.85432
rtoes -1.15147
lfemur 196.431 180.437 165.36
ltibia 5.56597e-015
lfoot 18.6909 2.16963
ltoes -16.1849
624
root -0.323022 1.65397 10.5679 -2439.95 1.65886 184.297
lowerback 7.96743 1.16571 0.427515
upperback 5.81912 1.15797 -2.30292
thorax 1.61332 0.428289 -2.69682
lowerneck -16.6976 -4.32405 -0.383971
upperneck 8.41143 -6.339 3.76154
head 5.37852 -2.91138 0.643474
rclavicle -4.77083e-015 -3.37934e-015
rhumerus -430.182 51.5327 251.97
rradius 111.928
rwrist -29.5701
rhand 6.37257 9.26916
rfingers 7.12502
rthumb 31.6783 -18.0008
lclavicle -4.77083e-015 -3.37934e-015
lhumerus -75.5533 -68.0278 118.028
lradius 110.461
lwrist 35.4127
lhand -4.38615 -12.1696
lfingers 7.12502
lthumb 21.3831 736.671
rfemur -213.277 -171.205 189.843
rtibia 85.0335
rfoot 21.9772 6.89841
rtoes -1.35855
lfemur 196.422 180.474 165.331
ltibia -1.11319e-014
lfoot 18.6263 2.3371
ltoes -16.0976
625
root -0.324032 1.65391 10.5672 -2439.91 1.64386 184.267
lowerback 7.93539 1.16983 0.433042
upperback 5.80914 1.16473 -2.32322
thorax 1.62157 0.432588 -2.72089
lowerneck -16.6825 -4.31138 -0.313948
upperneck 8.39791 -6.33277 3.72584
head 5.36828 -2.90931 0.622368
rclavicle -1.59028e-015 2.127e-014
rhumerus -430.213 51.5295 251.931
rradius 111.964
rwrist -29.616
rhand 6.3723 9.24991
rfingers 7.12502
rthumb 31.678 -18.0201
lclavicle -1.59028e-015 2.127e-014
lhumerus -75.4688 -68.0242 117.924
lradius 110.416
lwrist 35.3991
lhand -4.35562 -12.1909
lfingers 7.12502
lthumb 21.4124 736.646
rfemur -212.884 -171.206 189.983
rtibia 83.8238
rfoot 21.3484 6.9417
rtoes -1.7042
lfemur 196.396 180.489 165.31
ltibia -1.98785e-014
lfoot 18.574 2.46525
ltoes -16.2342
626
root -0.323554 1.65343 10.5658 -2439.9 1.63494 184.25
lowerback 7.92029 1.1734 0.426073
upperback 5.805 1.1694 -2.33178
thorax 1.62584 0.434988 -2.7259
lowerneck -16.6231 -4.30444 -0.298364
upperneck 8.32453 -6.32592 3.7356
head 5.33532 -2.90738 0.625713
rclavicle 1.66979e-014 -4.64162e-014
rhumerus -430.236 51.5172 251.918
rradius 112.001
rwrist -29.6461
rhand 6.42149 9.22313
rfingers 7.12502
rthumb 31.7249 -18.0376
lclavicle 1.66979e-014 -4.64162e-014
lhumerus -75.3589 -68.0191 117.811
lradius 110.383
lwrist 35.3882
lhand -4.31455 -12.2252
lfingers 7.12502
lthumb 21.4519 736.607
rfemur -212.455 -171.198 190.126
rtibia 82.6118
rfoot 20.7636 6.92527
rtoes -2.26127
lfemur 196.391 180.52 165.297
ltibia 6.36111e-014
lfoot 18.5038 2.64039
ltoes -16.205
627
root -0.322411 1.65361 10.5642 -2439.88 1.61498 184.211
lowerback 7.89575 1.18958 0.398392
upperback 5.79965 1.18963 -2.3354
thorax 1.6342 0.444467 -2.71491
lowerneck -16.6097 -4.30559 -0.284062
upperneck 8.29949 -6.33057 3.73773
head 5.32501 -2.91003 0.624237
rclavicle 0 -2.64384e-014
rhumerus -430.249 51.509 251.915
rradius 112.033
rwrist -29.6858
rhand 6.41779 9.21233
rfingers 7.12502
rthumb 31.7213 -18.0491
lclavicle 0 -2.64384e-014
lhumerus -75.2813 -68.033 117.72
lradius 110.369
lwrist 35.3899
lhand -4.31447 -12.2472
lfingers 7.12502
lthumb 21.452 736.585
rfemur -212.007 -171.216 190.257
rtibia 81.3824
rfoot 20.2088 6.87206
rtoes -3.04079
lfemur 196.375 180.527 165.28
ltibia 0
lfoot 18.4451 2.81596
ltoes -16.2545
628
root -0.321501 1.65359 10.5607 -2439.83 1.58774 184.154
lowerback 7.84466 1.20258 0.360591
upperback 5.78452 1.20679 -2.33488
thorax 1.64642 0.452823 -2.6933
lowerneck -16.56 -4.2982 -0.281002
upperneck 8.24329 -6.31546 3.71809
head 5.29815 -2.90539 0.620833
rclavicle -3.4191e-014 1.71949e-014
rhumerus -430.29 51.5253 251.904
rradius 112.074
rwrist -29.684
rhand 6.43329 9.20724
rfingers 7.12502
rthumb 31.7361 -18.0513
lclavicle -3.4191e-014 1.71949e-014
lhumerus -75.1343 -67.9858 117.58
lradius 110.332
lwrist 35.3553
lhand -4.23562 -12.2627
lfingers 7.12502
lthumb 21.5277 736.561
rfemur -211.578 -171.226 190.378
rtibia 80.1454
rfoot 19.6994 6.82235
rtoes -3.72482
lfemur 196.342 180.513 165.261
ltibia -3.97569e-015
lfoot 18.3618 2.99384
ltoes -16.2307
629
root -0.320103 1.65351 10.5572 -2439.8 1.55942 184.121
lowerback 7.80636 1.21427 0.310665
upperback 5.77411 1.22091 -2.33189
thorax 1.65598 0.458965 -2.66231
lowerneck -16.538 -4.29237 -0.276647
upperneck 8.22796 -6.30651 3.71044
head 5.28919 -2.90184 0.619276
rclavicle -2.14687e-014 2.21645e-014
rhumerus -430.322 51.535 251.905
rradius 112.102
rwrist -29.7065
rhand 6.40718 9.19701
rfingers 7.12502
rthumb 31.7112 -18.0664
lclavicle -2.14687e-014 2.21645e-014
lhumerus -75.0207 -67.969 117.478
lradius 110.308
lwrist 35.3392
lhand -4.20042 -12.2774
lfingers 7.12502
lthumb 21.5615 736.542
rfemur -211.101 -171.206 190.482
rtibia 78.8906
rfoot 19.2477 6.70388
rtoes -4.18458
lfemur 196.313 180.523 165.234
ltibia -2.54444e-014
lfoot 18.3042 3.17007
ltoes -16.2791
630
root -0.318659 1.65333 10.5528 -2439.76 1.52032 184.075
lowerback 7.76588 1.22979 0.271499
upperback 5.76327 1.23988 -2.35488
thorax 1.66751 0.46786 -2.66457
lowerneck -16.5417 -4.48258 -0.169212
upperneck 8.24781 -6.28415 3.66903
head 5.2902 -2.71135 0.607803
rclavicle 1.35174e-014 -2.06736e-014
rhumerus -430.35 51.5342 251.862
rradius 112.138
rwrist -29.7273
rhand 6.38558 9.17457
rfingers 7.12502
rthumb 31.6907 -18.0929
lclavicle 1.35174e-014 -2.06736e-014
lhumerus -74.9164 -67.9669 117.36
lradius 110.27
lwrist 35.3415
lhand -4.16223 -12.313
lfingers 7.12502
lthumb 21.5982 736.503
rfemur -210.619 -171.177 190.57
rtibia 77.6274
rfoot 18.8419 6.62153
rtoes -4.60953
lfemur 196.288 180.519 165.199
ltibia -3.18055e-014
lfoot 18.2342 3.31789
ltoes -16.4945
631
root -0.316468 1.65316 10.5478 -2439.72 1.48851 184
lowerback 7.72535 1.25697 0.216346
upperback 5.74134 1.27459 -2.35269
thorax 1.66716 0.484239 -2.63269
lowerneck -16.4784 -4.47747 -0.142223
upperneck 8.18502 -6.27641 3.63944
head 5.25817 -2.71127 0.597025
rclavicle 2.38542e-015 -3.47873e-015
rhumerus -430.39 51.5314 251.858
rradius 112.159
rwrist -29.7316
rhand 6.38057 9.18564
rfingers 7.12502
rthumb 31.6859 -18.0828
lclavicle 2.38542e-015 -3.47873e-015
lhumerus -74.8296 -67.9459 117.286
lradius 110.247
lwrist 35.2951
lhand -4.12877 -12.2954
lfingers 7.12502
lthumb 21.6303 736.516
rfemur -210.126 -171.171 190.673
rtibia 76.3544
rfoot 18.495 6.48307
rtoes -4.69529
lfemur 196.256 180.489 165.184
ltibia 4.92986e-014
lfoot 18.1647 3.52301
ltoes -16.3971
632
root -0.314635 1.65329 10.542 -2439.67 1.45923 183.944
lowerback 7.65503 1.277 0.178539
upperback 5.73429 1.30072 -2.36319
thorax 1.69909 0.496941 -2.62257
lowerneck -16.4798 -4.47168 -0.0993677
upperneck 8.17711 -6.27421 3.61367
head 5.25363 -2.71076 0.582531
rclavicle 2.8625e-014 -2.33572e-014
rhumerus -430.382 51.5426 251.854
rradius 112.175
rwrist -29.7373
rhand 6.32438 9.14933
rfingers 7.12502
rthumb 31.6324 -18.1297
lclavicle 2.8625e-014 -2.33572e-014
lhumerus -74.7125 -67.953 117.163
lradius 110.224
lwrist 35.3005
lhand -4.12877 -12.3223
lfingers 7.12502
lthumb 21.6303 736.49
rfemur -209.627 -171.137 190.77
rtibia 75.0742
rfoot 18.2122 6.33373
rtoes -4.67961
lfemur 196.207 180.476 165.164
ltibia -3.81667e-014
lfoot 18.1053 3.70764
ltoes -16.5202
633
root -0.312 1.653 10.536 -2439.6 1.41651 183.88
lowerback 7.59174 1.29666 0.101847
upperback 5.70759 1.32578 -2.35612
thorax 1.70503 0.508399 -2.57247
lowerneck -16.4379 -4.47318 -0.13377
upperneck 8.16019 -6.26941 3.62124
head 5.24278 -2.71038 0.591737
rclavicle 7.95139e-015 -3.85642e-014
rhumerus -430.423 51.577 251.862
rradius 112.201
rwrist -29.713
rhand 6.30451 9.16628
rfingers 7.12502
rthumb 31.6134 -18.1164
lclavicle 7.95139e-015 -3.85642e-014
lhumerus -74.5945 -67.9264 117.073
lradius 110.211
lwrist 35.2498
lhand -4.13317 -12.3162
lfingers 7.12502
lthumb 21.6261 736.496
rfemur -209.126 -171.143 190.856
rtibia 73.7897
rfoot 17.9849 6.12473
rtoes -4.45207
lfemur 194.58 180.435 165.147
ltibia 3.03987
lfoot 16.695 3.33059
ltoes -16.4767
